<svg width="164" height="53" viewBox="0 0 164 53" fill="none" xmlns="http://www.w3.org/2000/svg">
<path d="M147.598 24.7852C146.895 25.0586 145.352 25.3711 142.969 25.7227C140.625 26.0352 138.926 26.1914 137.871 26.1914C135.293 26.1914 132.93 25.4492 130.781 23.9648C128.672 22.4805 127.617 21.3281 127.617 20.5078C127.617 19.6875 127.949 19.2773 128.613 19.2773C128.926 19.2773 129.199 19.4336 129.434 19.7461C130.957 21.582 133.184 22.5 136.113 22.5C139.043 22.5 141.973 21.7383 144.902 20.2148L142.266 14.9414C137.07 14.9414 133.34 13.9062 131.074 11.8359C130.176 11.0156 129.727 10.2539 129.727 9.55078C129.727 8.84766 129.961 8.49609 130.43 8.49609C130.547 8.49609 130.781 8.67188 131.133 9.02344C132.227 10.0781 133.457 10.6055 134.824 10.6055C136.191 10.6055 137.461 10.3906 138.633 9.96094C136.367 6.71875 134.395 5.03906 132.715 4.92188C130.488 4.72656 129.375 4.25781 129.375 3.51562C129.375 3.04688 129.668 2.59766 130.254 2.16797C130.84 1.73828 131.406 1.52344 131.953 1.52344C133.594 1.52344 135.059 2.10938 136.348 3.28125C137.676 4.41406 139.238 6.44531 141.035 9.375C141.816 9.21875 142.676 9.14062 143.613 9.14062C146.074 9.14062 147.305 9.74609 147.305 10.957C147.305 11.8555 146.504 12.8906 144.902 14.0625C147.949 15.1953 150.84 15.8203 153.574 15.9375C154.707 15.9766 155.43 16.0352 155.742 16.1133C156.953 16.3867 157.559 16.9727 157.559 17.8711C157.559 19.5898 155.098 21.543 150.176 23.7305C150.527 24.3945 152.129 27.1875 154.98 32.1094C155.293 32.6562 155.449 33.125 155.449 33.5156C155.449 34.9609 155.059 36.3477 154.277 37.6758C153.535 38.9648 152.852 39.6094 152.227 39.6094C150.664 39.6094 149.492 39.1406 148.711 38.2031C147.93 37.2266 146.66 36.4648 144.902 35.918C143.145 35.3711 141.27 35.0977 139.277 35.0977C137.285 35.0977 135.508 35.5664 133.945 36.5039C132.383 37.4414 131.602 38.8867 131.602 40.8398C131.602 41.6992 132.266 42.4414 133.594 43.0664C134.961 43.6523 136.25 43.9453 137.461 43.9453L142.441 43.5938C143.652 43.5938 144.863 43.9648 146.074 44.707C147.285 45.4492 147.891 46.3086 147.891 47.2852C147.891 48.2227 147.344 48.8867 146.25 49.2773C145.195 49.707 143.965 49.9219 142.559 49.9219C133.457 49.9219 128.906 47.0508 128.906 41.3086C128.906 37.0898 131.738 34.4336 137.402 33.3398C139.082 33.0273 140.664 32.8711 142.148 32.8711C143.633 32.8711 144.941 32.9883 146.074 33.2227C147.207 33.418 147.988 33.5156 148.418 33.5156C148.848 33.5156 149.199 33.4766 149.473 33.3984C149.785 33.2812 150.137 33.1445 150.527 32.9883C150.918 32.793 151.172 32.6758 151.289 32.6367C150.781 30.5273 149.551 27.9102 147.598 24.7852ZM145.371 16.0547L147.129 19.4531C147.715 19.2578 148.555 18.8867 149.648 18.3398L145.371 16.0547ZM147.363 4.57031C147.363 4.02344 147.969 3.75 149.18 3.75C150.391 3.75 152.012 4.33594 154.043 5.50781C156.113 6.64062 157.148 8.00781 157.148 9.60938C157.148 11.2109 156.387 12.0117 154.863 12.0117C153.574 12.0117 152.812 11.6016 152.578 10.7812C151.953 8.90625 150.918 7.57812 149.473 6.79688C148.066 5.97656 147.363 5.23438 147.363 4.57031ZM153.34 0.761719C153.34 0.253906 153.926 0 155.098 0C156.309 0 157.93 0.546875 159.961 1.64062C162.031 2.73438 163.066 4.10156 163.066 5.74219C163.066 7.38281 162.305 8.20312 160.781 8.20312C159.57 8.20312 158.809 7.77344 158.496 6.91406C157.91 5.03906 156.895 3.71094 155.449 2.92969C154.043 2.14844 153.34 1.42578 153.34 0.761719Z" fill="black"/>
<path d="M84.4922 11.7773C84.3359 11.7773 84.0625 11.6602 83.6719 11.4258C83.2812 11.1914 82.7734 10.957 82.1484 10.7227C81.5234 10.4883 80.2344 10.3711 78.2812 10.3711C74.8438 10.3711 73.125 10.8789 73.125 11.8945C73.125 11.9727 73.2422 12.3242 73.4766 12.9492C73.7109 13.5742 73.8281 14.3555 73.8281 15.293C73.8281 16.2305 73.5156 18.1445 72.8906 21.0352C72.3047 23.9258 72.0117 26.1914 72.0117 27.832C72.0117 29.4727 72.207 30.7227 72.5977 31.582C73.0273 32.4023 73.457 32.8125 73.8867 32.8125C74.3164 32.8125 75.2734 32.3242 76.7578 31.3477C81.25 28.3789 84.7852 26.8945 87.3633 26.8945C89.9414 26.8945 92.3633 27.7734 94.6289 29.5312C96.8945 31.2891 98.0273 33.6328 98.0273 36.5625C98.0273 40.4688 96.9336 43.3594 94.7461 45.2344C92.5977 47.1094 89.7266 48.5156 86.1328 49.4531C82.5391 50.3906 79.5898 50.8594 77.2852 50.8594C73.6133 50.8594 71.7773 50.3125 71.7773 49.2188C71.7773 48.3594 72.8906 47.9297 75.1172 47.9297C77.3438 47.9297 79.7656 47.5391 82.3828 46.7578C85 45.9766 87.0312 45.1367 88.4766 44.2383C89.9609 43.3398 90.9766 42.3828 91.5234 41.3672C92.1094 40.3516 92.4023 38.7891 92.4023 36.6797C92.4023 34.5703 91.9336 32.8516 90.9961 31.5234C90.0586 30.1562 88.6914 29.4727 86.8945 29.4727C85.8789 29.4727 84.9609 29.8438 84.1406 30.5859C83.3203 31.2891 81.9922 32.6367 80.1562 34.6289C78.3594 36.582 77.3242 37.6953 77.0508 37.9688C76.0742 38.9453 74.9609 39.4336 73.7109 39.4336C72.4609 39.4336 71.4062 39.1406 70.5469 38.5547C70 38.1641 69.4922 37.2656 69.0234 35.8594C68.5547 34.4141 68.3203 33.2227 68.3203 32.2852C68.3203 31.3477 68.5352 29.1211 68.9648 25.6055C69.4336 22.0508 69.6875 18.4961 69.7266 14.9414C69.8047 12.0898 70.8594 10.4297 72.8906 9.96094C76.7969 9.02344 79.6875 7.87109 81.5625 6.50391C81.5625 5.83984 81.0742 5.11719 80.0977 4.33594C79.1211 3.51562 78.3789 3.04688 77.8711 2.92969C77.3633 2.77344 76.9922 2.67578 76.7578 2.63672C76.5625 2.55859 76.4062 2.51953 76.2891 2.51953C75.7422 2.40234 75.4688 2.10938 75.4688 1.64062C75.4688 0.976562 76.6211 0.644531 78.9258 0.644531C81.2305 0.644531 83.2031 1.46484 84.8438 3.10547C86.4844 4.74609 87.3047 6.62109 87.3047 8.73047C87.3047 9.47266 87.0117 10.1758 86.4258 10.8398C85.8398 11.4648 85.1953 11.7773 84.4922 11.7773Z" fill="black"/>
<path d="M2.69531 34.8047C0.898438 31.2109 0 28.0469 0 25.3125C0 22.5781 0.351562 19.3164 1.05469 15.5273C1.79688 11.6992 2.16797 9.72656 2.16797 9.60938L1.46484 6.91406C1.46484 6.48438 1.89453 6.26953 2.75391 6.26953C3.61328 6.26953 4.49219 6.91406 5.39062 8.20312C6.28906 9.45312 6.73828 10.4102 6.73828 11.0742C6.73828 11.7383 6.28906 13.5352 5.39062 16.4648C4.53125 19.3555 4.10156 21.6797 4.10156 23.4375C4.10156 25.1562 4.33594 26.5234 4.80469 27.5391C7.69531 21.7188 11.0352 16.7773 14.8242 12.7148C16.0352 9.39453 16.9141 7.40234 17.4609 6.73828C18.0078 6.03516 18.9453 5.33203 20.2734 4.62891C21.6016 3.92578 22.5195 3.57422 23.0273 3.57422C23.5742 3.57422 24.2969 3.73047 25.1953 4.04297C26.1328 4.31641 26.8164 4.57031 27.2461 4.80469C28.0273 4.53125 28.5742 4.39453 28.8867 4.39453C33.418 4.39453 37.1289 6.01562 40.0195 9.25781C41.2305 10.625 42.1875 12.4805 42.8906 14.8242C43.5938 17.168 43.9453 19.668 43.9453 22.3242C43.9453 27.5195 42.3828 31.7969 39.2578 35.1562C36.1719 38.5156 32.793 40.1953 29.1211 40.1953C28.5352 40.1953 27.7734 40.1562 26.8359 40.0781C25.3516 42.7734 23.75 45.0977 22.0312 47.0508C20.3516 49.0039 18.9844 50.332 17.9297 51.0352C16.875 51.7773 16.1523 52.1484 15.7617 52.1484C15.3711 52.1484 15.1758 51.9922 15.1758 51.6797C15.1758 51.3672 15.3125 51.0742 15.5859 50.8008L16.4648 50.0391C20.2148 46.3281 22.5977 42.7539 23.6133 39.3164C20.7227 37.793 18.3984 35.4883 16.6406 32.4023C14.9219 29.2773 14.0625 25.6641 14.0625 21.5625C14.0625 19.7266 14.1211 18.3789 14.2383 17.5195C10.4883 22.793 8.61328 27.5195 8.61328 31.6992C8.61328 32.2461 8.86719 32.9883 9.375 33.9258C9.92188 34.8633 10.1953 35.8398 10.1953 36.8555C10.1953 37.832 10 38.6328 9.60938 39.2578C9.21875 39.8828 8.69141 40.1953 8.02734 40.1953C6.26953 40.1953 4.49219 38.3984 2.69531 34.8047ZM18.1055 12.3047C17.3633 14.0234 16.9922 16.8359 16.9922 20.7422C16.9922 24.6094 17.6953 27.5586 19.1016 29.5898C20.5078 31.6211 22.5781 33.2617 25.3125 34.5117C26.2109 32.168 26.8164 30.1172 27.1289 28.3594C27.4414 26.6016 27.5977 24.2188 27.5977 21.2109C27.5977 15.3125 26.7578 10.8008 25.0781 7.67578C23.0469 8.49609 20.9766 9.80469 18.8672 11.6016C18.4375 11.9531 18.1836 12.1875 18.1055 12.3047ZM28.8867 6.85547C31.2695 13.2227 32.4609 17.8711 32.4609 20.8008C32.4609 25.8008 31.4062 30.6055 29.2969 35.2148C31.4844 35.2148 33.7109 33.9844 35.9766 31.5234C38.2812 29.0234 39.4336 25.8789 39.4336 22.0898C39.4336 16.6992 37.8906 12.4609 34.8047 9.375C33.125 7.69531 31.1523 6.85547 28.8867 6.85547Z" fill="black"/>
</svg>
