<svg width="217" height="19" viewBox="0 0 217 19" fill="none" xmlns="http://www.w3.org/2000/svg">
<path d="M199.78 4.12598C199.78 4.01204 199.943 3.90625 200.269 3.80859C200.594 3.69466 200.968 3.6377 201.392 3.6377C201.815 3.6377 202.417 3.71908 203.198 3.88184C203.996 4.02832 204.549 4.23991 204.858 4.5166C205.168 4.77702 205.322 5.2002 205.322 5.78613C205.322 6.8929 204.826 7.44629 203.833 7.44629C203.442 7.44629 203.011 7.24284 202.539 6.83594C202.083 6.42904 201.725 6.02214 201.465 5.61523C201.318 5.37109 200.846 4.96419 200.049 4.39453C199.87 4.26432 199.78 4.1748 199.78 4.12598ZM200.635 12.0605C200.7 12.0605 200.936 12.2152 201.343 12.5244C201.75 12.8174 202.14 12.9639 202.515 12.9639C203.963 12.9639 206.763 11.263 210.913 7.86133C213.078 6.08724 214.819 4.55729 216.138 3.27148C216.447 2.94596 216.626 2.7832 216.675 2.7832C216.838 2.7832 216.919 2.92155 216.919 3.19824C216.919 3.6377 216.178 4.63867 214.697 6.20117C213.232 7.76367 212.069 8.94368 211.206 9.74121C210.36 10.5387 209.261 11.4502 207.91 12.4756C206.559 13.501 205.672 14.209 205.249 14.5996C204.224 15.5273 203.353 15.9912 202.637 15.9912C202.148 15.9912 201.562 15.7471 200.879 15.2588C200.212 14.7542 199.878 14.3311 199.878 13.9893C199.878 13.6475 199.959 13.2406 200.122 12.7686C200.301 12.2965 200.472 12.0605 200.635 12.0605Z" fill="black"/>
<path d="M186.597 14.6484C186.597 14.8275 186.556 14.9577 186.475 15.0391C186.393 15.1042 186.263 15.1611 186.084 15.21C185.921 15.2588 185.726 15.3564 185.498 15.5029C185.286 15.6331 185.099 15.6982 184.937 15.6982C184.79 15.6982 184.692 15.6576 184.644 15.5762C184.611 15.4785 184.465 15.332 184.204 15.1367C183.944 14.9414 183.447 14.8438 182.715 14.8438C181.999 14.8438 181.185 14.9984 180.273 15.3076C179.378 15.6006 178.914 15.7471 178.882 15.7471C178.719 15.7471 178.459 15.5924 178.101 15.2832C177.743 14.9577 177.563 14.7135 177.563 14.5508C177.563 14.3717 177.629 14.2334 177.759 14.1357C177.889 14.0381 177.979 13.9974 178.027 14.0137C178.076 14.0299 178.101 14.0381 178.101 14.0381L179.004 14.209L182.3 13.7695H182.324H182.837C182.869 13.7695 183 13.7695 183.228 13.7695C183.472 13.7695 183.667 13.737 183.813 13.6719C183.96 13.5905 184.172 13.501 184.448 13.4033C184.53 13.3708 184.603 13.1592 184.668 12.7686C184.733 12.3779 184.766 12.1175 184.766 11.9873C184.766 11.8408 184.668 11.7188 184.473 11.6211C184.456 11.6048 184.432 11.5804 184.399 11.5479C184.367 11.5153 184.302 11.499 184.204 11.499C184.106 11.499 184.033 11.5153 183.984 11.5479C183.952 11.5804 183.651 11.6048 183.081 11.6211L180.664 11.8164H180.64C180.021 11.849 179.639 11.9059 179.492 11.9873C179.362 12.0524 179.199 12.085 179.004 12.085C178.809 12.085 178.597 12.0036 178.369 11.8408C177.897 11.5316 177.661 11.2305 177.661 10.9375C177.661 10.8236 177.702 10.7015 177.783 10.5713C177.881 10.4411 177.995 10.376 178.125 10.376C178.271 10.376 178.418 10.4492 178.564 10.5957C178.711 10.7259 179.012 10.791 179.468 10.791C180.705 10.791 181.73 10.7096 182.544 10.5469C183.358 10.3678 183.781 10.2783 183.813 10.2783L184.424 10.3516C184.456 10.3516 184.562 10.3027 184.741 10.2051C184.937 10.0911 185.042 10.0098 185.059 9.96094L185.083 9.69238C185.116 9.48079 185.132 9.17969 185.132 8.78906C185.132 8.38216 185.034 8.14616 184.839 8.08105C184.644 7.99967 184.18 7.95898 183.447 7.95898C182.715 7.95898 181.787 8.07292 180.664 8.30078C179.557 8.51237 178.914 8.61816 178.735 8.61816C178.573 8.61816 178.247 8.52051 177.759 8.3252C177.271 8.11361 177.026 7.84505 177.026 7.51953C177.026 7.4056 177.083 7.29167 177.197 7.17773C177.311 7.04753 177.393 6.98242 177.441 6.98242C177.507 6.98242 177.539 6.98242 177.539 6.98242L178.882 7.2998L184.668 6.90918C185.075 6.87663 185.327 6.8278 185.425 6.7627C185.522 6.68132 185.596 6.64062 185.645 6.64062C185.693 6.64062 185.946 6.70573 186.401 6.83594C186.873 6.94987 187.166 7.01497 187.28 7.03125C187.557 7.0638 187.687 7.39746 187.671 8.03223C187.671 8.3252 187.598 8.6263 187.451 8.93555C187.305 9.24479 187.231 9.42383 187.231 9.47266L187.085 10.1318C186.792 11.5804 186.646 12.443 186.646 12.7197V12.915L186.597 14.4775V14.6484Z" fill="black"/>
<path d="M151.27 7.86133C151.758 7.86133 152.336 8.00781 153.003 8.30078C153.687 8.59375 154.028 9.00879 154.028 9.5459C154.028 10.4248 153.621 10.8643 152.808 10.8643C152.58 10.8643 152.246 10.612 151.807 10.1074C151.367 9.60286 150.928 9.26107 150.488 9.08203C149.967 8.93555 149.707 8.69954 149.707 8.37402C149.707 8.03223 150.228 7.86133 151.27 7.86133ZM150.732 15.0146C150.732 14.1357 150.936 13.6963 151.343 13.6963C151.392 13.6963 151.636 13.8184 152.075 14.0625C152.531 14.3066 152.954 14.4287 153.345 14.4287C154.159 14.4287 155.933 13.3952 158.667 11.3281C161.418 9.24479 163.867 6.86849 166.016 4.19922C166.064 4.15039 166.13 4.03646 166.211 3.85742C166.309 3.67839 166.398 3.56445 166.479 3.51562C166.561 3.4668 166.683 3.44238 166.846 3.44238C167.041 3.44238 167.139 3.54004 167.139 3.73535C167.139 4.48405 166.699 5.41178 165.82 6.51855C163.851 8.97624 161.491 11.3363 158.74 13.5986C155.99 15.8447 154.036 16.9678 152.881 16.9678C152.523 16.9678 152.075 16.7725 151.538 16.3818C151.001 15.9912 150.732 15.5355 150.732 15.0146ZM151.929 2.73438C151.929 2.55534 152.303 2.46582 153.052 2.46582C153.8 2.46582 154.614 2.65299 155.493 3.02734C156.388 3.38542 156.836 3.91439 156.836 4.61426C156.836 5.16764 156.755 5.55013 156.592 5.76172C156.445 5.97331 156.201 6.0791 155.859 6.0791C155.518 6.0791 155.257 5.98145 155.078 5.78613C154.915 5.57454 154.639 5.25716 154.248 4.83398C153.857 4.39453 153.459 4.06901 153.052 3.85742C152.661 3.62956 152.417 3.48307 152.319 3.41797C152.059 3.25521 151.929 3.02734 151.929 2.73438Z" fill="black"/>
<path d="M123.12 8.71582C123.12 8.21126 123.389 7.95898 123.926 7.95898L125.83 8.71582C126.09 8.71582 128.019 8.5612 131.616 8.25195C135.213 7.94271 137.044 7.77995 137.109 7.76367C139.339 7.4056 140.576 7.22656 140.82 7.22656C141.064 7.22656 141.512 7.41374 142.163 7.78809C142.83 8.14616 143.164 8.48796 143.164 8.81348C143.164 9.139 143.034 9.44824 142.773 9.74121C142.529 10.0179 142.285 10.1562 142.041 10.1562C141.813 10.1562 141.276 10.0749 140.43 9.91211C139.583 9.73307 138.883 9.64355 138.33 9.64355C137.793 9.64355 136.979 9.66797 135.889 9.7168C134.814 9.76562 134.098 9.80632 133.74 9.83887C133.382 9.85514 133.097 9.86328 132.886 9.86328C132.674 9.86328 132.365 9.8877 131.958 9.93652L131.592 9.96094C131.429 9.97721 131.307 9.99349 131.226 10.0098C131.144 10.026 131.022 10.0505 130.859 10.083C130.713 10.0993 130.078 10.2458 128.955 10.5225C127.848 10.7829 127.051 10.9131 126.562 10.9131C126.074 10.9131 125.374 10.612 124.463 10.0098C123.568 9.40755 123.12 8.97624 123.12 8.71582Z" fill="black"/>
<path d="M101.782 2.92969C102.287 2.92969 102.946 3.15755 103.76 3.61328C104.59 4.05273 105.005 4.45964 105.005 4.83398C105.005 5.33854 104.964 5.59082 104.883 5.59082C104.704 5.59082 104.533 5.94889 104.37 6.66504C104.207 7.36491 104.069 8.26009 103.955 9.35059C103.841 10.4411 103.784 11.4665 103.784 12.4268C104.663 12.4268 106.706 11.5804 109.912 9.8877C113.135 8.17871 115.706 6.39648 117.627 4.54102C118.001 4.19922 118.294 4.02832 118.506 4.02832C118.734 4.02832 118.848 4.11784 118.848 4.29688C118.848 5.20833 117.578 6.67318 115.039 8.69141C112.5 10.6934 109.562 12.5163 106.226 14.1602C105.688 14.4206 105.103 14.8031 104.468 15.3076C104.126 15.568 103.727 15.6982 103.271 15.6982C103.158 15.6982 102.84 15.3402 102.319 14.624C101.799 13.8916 101.538 13.3952 101.538 13.1348C101.538 13.0859 101.611 12.7604 101.758 12.1582C101.904 11.556 102.051 10.612 102.197 9.32617C102.36 8.04036 102.441 7.12077 102.441 6.56738C102.441 5.99772 102.384 5.57454 102.271 5.29785C102.157 5.00488 101.88 4.72819 101.44 4.46777C101.001 4.20736 100.781 3.99577 100.781 3.83301C100.781 3.65397 100.911 3.45866 101.172 3.24707C101.449 3.03548 101.652 2.92969 101.782 2.92969Z" fill="black"/>
<path d="M75.5615 16.5771C77.8076 15.5518 79.9561 14.1439 82.0068 12.3535C82.7555 11.7025 83.3659 11.0758 83.8379 10.4736C84.3262 9.85514 84.6354 9.50521 84.7656 9.42383C84.3424 8.88672 83.7972 8.34147 83.1299 7.78809C82.9997 7.69043 82.9346 7.60091 82.9346 7.51953C82.9346 7.4056 83.0485 7.34863 83.2764 7.34863C83.5042 7.34863 83.8867 7.4707 84.4238 7.71484C85.1562 7.97526 85.5957 8.16243 85.7422 8.27637C86.263 7.6416 86.6536 7.10449 86.9141 6.66504C87.1908 6.22559 87.5326 5.59082 87.9395 4.76074C87.5488 4.37012 86.2793 4.1748 84.1309 4.1748C83.4473 4.98861 82.2835 6.0791 80.6396 7.44629C79.012 8.81348 77.9541 9.65169 77.4658 9.96094C76.7334 10.3353 76.3184 10.5225 76.2207 10.5225C76.123 10.5225 76.0417 10.498 75.9766 10.4492C75.9115 10.4004 75.8789 10.3597 75.8789 10.3271C75.8789 9.98535 76.1393 9.64355 76.6602 9.30176C77.7832 8.60189 79.0527 7.4707 80.4688 5.9082C81.8848 4.3457 82.5928 3.16569 82.5928 2.36816C82.5928 2.0752 82.487 1.74967 82.2754 1.3916C82.0801 1.03353 81.9824 0.805664 81.9824 0.708008C81.9824 0.333659 82.3486 0.146484 83.0811 0.146484C83.4229 0.146484 83.8135 0.358073 84.2529 0.78125C84.7087 1.18815 84.9365 1.52995 84.9365 1.80664C84.9365 2.34375 84.8307 2.74251 84.6191 3.00293C85.7585 3.23079 86.5072 3.34473 86.8652 3.34473C87.9395 3.34473 88.6312 3.18197 88.9404 2.85645C89.266 2.51465 89.5182 2.34375 89.6973 2.34375C90.1855 2.34375 90.6982 2.66113 91.2354 3.2959C91.7725 3.93066 92.041 4.39453 92.041 4.6875C92.041 4.88281 91.7969 5.07812 91.3086 5.27344C90.8366 5.46875 90.4704 5.63965 90.21 5.78613C89.2171 6.94173 88.2487 8.09733 87.3047 9.25293C88.4766 10.2295 89.0625 11.0758 89.0625 11.792C89.0625 12.9639 88.623 13.5498 87.7441 13.5498C87.207 13.5498 86.6699 13.0127 86.1328 11.9385C85.9863 11.5967 85.8724 11.263 85.791 10.9375C84.5215 12.3047 83.0485 13.5661 81.3721 14.7217C79.7119 15.861 78.1331 16.6992 76.6357 17.2363C75.1383 17.7734 74.2757 18.042 74.0479 18.042C73.82 18.042 73.7061 17.9606 73.7061 17.7979C73.7061 17.6351 73.82 17.4805 74.0479 17.334C74.292 17.1712 74.7965 16.9189 75.5615 16.5771Z" fill="black"/>
<path d="M48.7549 14.7461C48.7549 14.6322 48.8688 14.5264 49.0967 14.4287C49.3245 14.3311 49.8454 14.1276 50.6592 13.8184C52.7913 13.0534 54.7119 12.0931 56.4209 10.9375C58.1462 9.7819 59.4889 8.43913 60.4492 6.90918C60.8398 6.25814 61.0352 5.77799 61.0352 5.46875C61.0352 4.94792 60.6283 4.6875 59.8145 4.6875C59.5052 4.6875 58.7646 4.85026 57.5928 5.17578C56.4372 5.5013 55.7292 5.66406 55.4688 5.66406C54.9316 5.66406 54.4922 5.48503 54.1504 5.12695C53.8086 4.7526 53.6377 4.45964 53.6377 4.24805C53.6377 3.82487 53.7679 3.61328 54.0283 3.61328C54.0934 3.61328 54.1585 3.65397 54.2236 3.73535C54.484 3.99577 54.9479 4.12598 55.6152 4.12598C56.2988 4.12598 57.3486 4.02018 58.7646 3.80859C60.1969 3.58073 61.0433 3.38542 61.3037 3.22266C61.5641 3.04362 61.8978 2.9541 62.3047 2.9541C62.7116 2.9541 63.265 3.125 63.9648 3.4668C64.6647 3.80859 65.0146 4.15853 65.0146 4.5166C65.0146 4.74447 64.9007 4.98047 64.6729 5.22461C64.445 5.46875 64.209 5.65592 63.9648 5.78613L63.5986 5.95703C62.915 7.03125 62.1582 8.0485 61.3281 9.00879C62.5977 9.67611 63.6312 10.1074 64.4287 10.3027C65.2262 10.4818 65.8285 10.7829 66.2354 11.2061C66.6423 11.6292 66.8457 12.1501 66.8457 12.7686C66.8457 13.5986 66.3574 14.0137 65.3809 14.0137C65.1042 14.0137 64.7624 13.8753 64.3555 13.5986C63.9486 13.3057 63.7044 12.9476 63.623 12.5244C63.5417 12.2803 63.2487 11.8978 62.7441 11.377C62.2559 10.8561 61.5723 10.2865 60.6934 9.66797C58.6751 11.7025 56.1279 13.2487 53.0518 14.3066C51.4893 14.8438 50.2686 15.1123 49.3896 15.1123C48.9665 15.1123 48.7549 14.9902 48.7549 14.7461Z" fill="black"/>
<path d="M26.5137 4.12598C26.5137 4.01204 26.6764 3.90625 27.002 3.80859C27.3275 3.69466 27.7018 3.6377 28.125 3.6377C28.5482 3.6377 29.1504 3.71908 29.9316 3.88184C30.7292 4.02832 31.2826 4.23991 31.5918 4.5166C31.901 4.77702 32.0557 5.2002 32.0557 5.78613C32.0557 6.8929 31.5592 7.44629 30.5664 7.44629C30.1758 7.44629 29.7445 7.24284 29.2725 6.83594C28.8167 6.42904 28.4587 6.02214 28.1982 5.61523C28.0518 5.37109 27.5798 4.96419 26.7822 4.39453C26.6032 4.26432 26.5137 4.1748 26.5137 4.12598ZM27.3682 12.0605C27.4333 12.0605 27.6693 12.2152 28.0762 12.5244C28.4831 12.8174 28.8737 12.9639 29.248 12.9639C30.6966 12.9639 33.4961 11.263 37.6465 7.86133C39.8112 6.08724 41.5527 4.55729 42.8711 3.27148C43.1803 2.94596 43.3594 2.7832 43.4082 2.7832C43.571 2.7832 43.6523 2.92155 43.6523 3.19824C43.6523 3.6377 42.9118 4.63867 41.4307 6.20117C39.9658 7.76367 38.8021 8.94368 37.9395 9.74121C37.0931 10.5387 35.9945 11.4502 34.6436 12.4756C33.2926 13.501 32.4056 14.209 31.9824 14.5996C30.957 15.5273 30.0863 15.9912 29.3701 15.9912C28.8818 15.9912 28.2959 15.7471 27.6123 15.2588C26.945 14.7542 26.6113 14.3311 26.6113 13.9893C26.6113 13.6475 26.6927 13.2406 26.8555 12.7686C27.0345 12.2965 27.2054 12.0605 27.3682 12.0605Z" fill="black"/>
<path d="M10.2295 1.66016C10.2295 1.5625 10.0749 1.41602 9.76562 1.2207C9.47266 1.00911 9.32617 0.82194 9.32617 0.65918C9.32617 0.496419 9.47266 0.349935 9.76562 0.219727C10.0586 0.0732422 10.3353 0 10.5957 0C11.1979 0 11.8164 0.244141 12.4512 0.732422C13.1022 1.20443 13.4277 1.63574 13.4277 2.02637C13.4277 2.12402 13.265 2.35189 12.9395 2.70996C11.2793 4.56543 10.2132 5.79427 9.74121 6.39648C9.92025 6.47786 10.1644 6.58366 10.4736 6.71387C11.4176 7.12077 11.8896 7.5765 11.8896 8.08105C11.8896 8.11361 11.8408 8.39844 11.7432 8.93555C11.6455 9.45638 11.5967 10.1237 11.5967 10.9375L11.7676 17.0654C11.7676 17.3584 11.6455 17.6839 11.4014 18.042C11.1572 18.3838 10.9131 18.5547 10.6689 18.5547C10.2295 18.5547 9.8877 18.3512 9.64355 17.9443C9.39941 17.5374 9.27734 17.1712 9.27734 16.8457C9.27734 16.5202 9.32617 15.6494 9.42383 14.2334C9.53776 12.8174 9.60286 11.8652 9.61914 11.377C9.65169 10.8724 9.66797 9.9528 9.66797 8.61816C9.66797 8.03223 9.46452 7.5765 9.05762 7.25098C4.20736 11.3525 1.29395 13.4033 0.317383 13.4033C0.105794 13.4033 0 13.3301 0 13.1836C0 13.0208 0.268555 12.7279 0.805664 12.3047C1.34277 11.8815 2.18913 11.1979 3.34473 10.2539C4.5166 9.3099 5.50944 8.41471 6.32324 7.56836C7.13704 6.70573 7.99154 5.63965 8.88672 4.37012C9.7819 3.10059 10.2295 2.19727 10.2295 1.66016Z" fill="black"/>
</svg>
