<svg width="131" height="27" viewBox="0 0 131 27" fill="none" xmlns="http://www.w3.org/2000/svg">
<path d="M122.594 24.9226C122.465 24.8577 122.363 24.7603 122.288 24.6304C122.214 24.4912 122.177 24.3428 122.177 24.1851C122.177 23.9532 122.26 23.7537 122.427 23.5867C122.604 23.4104 122.813 23.3223 123.054 23.3223C123.267 23.3223 123.439 23.3826 123.569 23.5032C123.819 23.6887 124.107 23.8279 124.431 23.9207C124.756 24.0042 125.146 24.0459 125.6 24.0459C126.009 24.0459 126.389 23.9532 126.742 23.7676C127.094 23.5728 127.372 23.313 127.577 22.9883C127.79 22.6636 127.897 22.3111 127.897 21.9307C127.897 21.1978 127.679 20.6226 127.243 20.2051C126.806 19.7876 126.222 19.5789 125.489 19.5789C125.053 19.5789 124.622 19.6438 124.195 19.7737C124.084 19.8015 123.981 19.8154 123.889 19.8154C123.647 19.8154 123.448 19.7366 123.29 19.5789C123.133 19.4119 123.054 19.1985 123.054 18.9387V14.9866C123.054 14.7175 123.142 14.4949 123.318 14.3186C123.504 14.1423 123.726 14.0542 123.986 14.0542H128.342C128.583 14.0542 128.787 14.1423 128.954 14.3186C129.13 14.4856 129.219 14.6897 129.219 14.9309C129.219 15.1628 129.13 15.3669 128.954 15.5432C128.787 15.7102 128.583 15.7937 128.342 15.7937H124.807V17.8811C124.881 17.8718 124.97 17.8626 125.072 17.8533C125.183 17.844 125.313 17.8394 125.461 17.8394C126.268 17.8394 126.987 18.011 127.618 18.3543C128.258 18.6882 128.755 19.166 129.107 19.7876C129.469 20.3999 129.65 21.1143 129.65 21.9307C129.65 22.6265 129.464 23.2713 129.093 23.865C128.732 24.4495 128.24 24.918 127.618 25.2705C127.006 25.6138 126.333 25.7854 125.6 25.7854C125.025 25.7854 124.492 25.7066 124 25.5489C123.508 25.3911 123.04 25.1824 122.594 24.9226Z" fill="#333333"/>
<path d="M129.649 21.9311C129.649 21.1148 129.468 20.4003 129.107 19.7881C128.776 19.2053 128.319 18.7489 127.736 18.4189L127.617 18.3547C127.026 18.0329 126.357 17.8617 125.611 17.8415L125.46 17.8398C125.312 17.8398 125.182 17.8442 125.071 17.8535C124.969 17.8628 124.881 17.8723 124.806 17.8816V15.794H128.341L128.43 15.7901C128.604 15.7744 128.757 15.7119 128.889 15.6023L128.953 15.5437C129.107 15.3895 129.194 15.2138 129.214 15.0169L129.218 14.9313C129.218 14.6901 129.129 14.4858 128.953 14.3188C128.807 14.1647 128.633 14.078 128.43 14.0587L128.341 14.0545V13.6685C128.667 13.6685 128.956 13.7847 129.188 14.0075L129.265 14.0844C129.488 14.3164 129.604 14.605 129.604 14.9313C129.604 15.2738 129.469 15.5741 129.227 15.8168C128.985 16.0579 128.682 16.1804 128.341 16.1804H125.192V17.4597C125.276 17.4559 125.365 17.4534 125.46 17.4534C126.321 17.4534 127.103 17.6366 127.796 18.0121C128.499 18.3791 129.049 18.9074 129.439 19.5915L129.512 19.7203C129.864 20.3701 130.035 21.1107 130.035 21.9311C130.035 22.6991 129.829 23.4139 129.421 24.0682L129.421 24.0685C129.024 24.7103 128.484 25.2237 127.808 25.6069L127.806 25.6079C127.134 25.9849 126.396 26.1719 125.6 26.1719C124.989 26.1719 124.415 26.0884 123.881 25.9171C123.363 25.7509 122.869 25.5305 122.399 25.2566H122.399C122.209 25.1565 122.059 25.0091 121.952 24.8224L121.947 24.8126C121.843 24.6175 121.79 24.4065 121.79 24.1854C121.79 23.849 121.916 23.5519 122.154 23.3139C122.4 23.068 122.705 22.9363 123.053 22.9363C123.332 22.9363 123.595 23.0148 123.807 23.1995C124.014 23.351 124.253 23.4681 124.531 23.548C124.815 23.6205 125.169 23.66 125.6 23.66V24.0464L125.432 24.0443C125.049 24.0352 124.715 23.9942 124.43 23.9211C124.146 23.84 123.891 23.723 123.664 23.5709L123.568 23.5035C123.454 23.3979 123.308 23.3387 123.131 23.3255L123.053 23.3227C122.812 23.3227 122.603 23.4108 122.427 23.587L122.368 23.6512C122.24 23.8044 122.176 23.9825 122.176 24.1854C122.176 24.3431 122.213 24.4916 122.287 24.6308C122.362 24.7606 122.464 24.8579 122.593 24.9228C123.039 25.1826 123.507 25.3916 123.999 25.5493C124.429 25.6873 124.892 25.7648 125.386 25.782L125.6 25.7859C126.287 25.7858 126.921 25.6348 127.502 25.3331L127.617 25.271C128.239 24.9184 128.731 24.4498 129.093 23.8653C129.44 23.3087 129.625 22.7073 129.647 22.061L129.649 21.9311ZM127.51 21.9311C127.51 21.2793 127.318 20.8138 126.974 20.4844C126.625 20.15 126.144 19.9653 125.488 19.9653C125.091 19.9653 124.698 20.0246 124.307 20.1436L124.297 20.1464L124.288 20.1489C124.153 20.1826 124.019 20.2018 123.888 20.2019C123.553 20.2019 123.253 20.0887 123.016 19.8523L123.009 19.8446C122.774 19.5963 122.666 19.2835 122.666 18.939V14.9871C122.666 14.6246 122.789 14.3006 123.044 14.0458L123.051 14.0387C123.31 13.7932 123.628 13.6685 123.985 13.6685V14.0545C123.725 14.0546 123.503 14.1426 123.317 14.3188C123.141 14.4951 123.053 14.718 123.053 14.9871V18.939L123.056 19.0342C123.074 19.2514 123.151 19.4331 123.289 19.5792C123.427 19.7172 123.597 19.7947 123.799 19.8119L123.888 19.8158C123.981 19.8158 124.083 19.8018 124.194 19.774C124.621 19.6441 125.052 19.5792 125.488 19.5792L125.624 19.5817C126.294 19.6061 126.833 19.814 127.242 20.2054C127.678 20.6228 127.896 21.1982 127.896 21.9311L127.891 22.0722C127.867 22.399 127.762 22.7044 127.576 22.9886C127.371 23.3133 127.093 23.5733 126.741 23.7681L126.607 23.833C126.293 23.9751 125.957 24.0464 125.6 24.0464V23.66C125.944 23.66 126.261 23.5826 126.555 23.4291C126.852 23.2643 127.081 23.0492 127.248 22.7829L127.253 22.7766C127.426 22.5135 127.51 22.2344 127.51 21.9311ZM128.341 13.6685V14.0545H123.985V13.6685H128.341Z" fill="#333333"/>
<path d="M119.955 23.6704C120.197 23.6704 120.401 23.7539 120.568 23.9209C120.735 24.0879 120.818 24.292 120.818 24.5332C120.818 24.7744 120.735 24.9832 120.568 25.1595C120.401 25.3265 120.201 25.4099 119.969 25.4099H114.264C113.985 25.4099 113.758 25.3265 113.582 25.1595C113.406 24.9925 113.317 24.7744 113.317 24.5054C113.317 24.0508 113.47 23.5452 113.777 22.9886C114.092 22.4319 114.445 21.9588 114.834 21.5691C114.955 21.4485 115.14 21.2862 115.391 21.0821C115.641 20.8687 115.892 20.6692 116.142 20.4837C115.632 20.3816 115.168 20.1868 114.751 19.8992C114.333 19.6023 114.004 19.2312 113.763 18.7859C113.521 18.3313 113.401 17.8257 113.401 17.2691C113.401 16.5918 113.554 15.9841 113.86 15.4461C114.176 14.908 114.612 14.4905 115.168 14.1936C115.734 13.8875 116.37 13.7344 117.075 13.7344C117.761 13.7344 118.378 13.8875 118.926 14.1936C119.473 14.4998 119.9 14.9265 120.206 15.4739C120.521 16.012 120.679 16.6196 120.679 17.2969C120.679 17.9741 120.452 18.6235 119.997 19.2451C119.552 19.8667 118.856 20.5069 117.91 21.1655C117.622 21.3604 117.279 21.6201 116.88 21.9448C116.481 22.2696 116.184 22.5386 115.989 22.752C115.683 23.086 115.47 23.3921 115.349 23.6704H119.955ZM115.14 17.2691C115.14 17.5845 115.233 17.8814 115.419 18.1597C115.604 18.438 115.845 18.6607 116.142 18.8277C116.439 18.9854 116.75 19.0642 117.075 19.0642C117.353 19.0642 117.618 19.0039 117.868 18.8833C118.128 18.7627 118.35 18.5725 118.536 18.3128C118.805 17.9231 118.94 17.5845 118.94 17.2969C118.94 16.7495 118.768 16.3088 118.425 15.9749C118.091 15.6409 117.641 15.4739 117.075 15.4739C116.49 15.4739 116.022 15.6409 115.669 15.9749C115.317 16.2996 115.14 16.731 115.14 17.2691Z" fill="#333333"/>
<path d="M112.932 24.5053C112.932 23.9649 113.114 23.3945 113.439 22.8023L113.442 22.7978C113.772 22.2157 114.145 21.7138 114.562 21.296C114.696 21.1624 114.891 20.9919 115.141 20.7878C115.201 20.7373 115.26 20.6875 115.319 20.6386C115.043 20.5273 114.78 20.3875 114.533 20.2171L114.53 20.2153L114.528 20.2139C114.063 19.8833 113.694 19.4675 113.424 18.9697L113.423 18.9669C113.15 18.4521 113.016 17.8834 113.016 17.2689C113.016 16.5312 113.183 15.8566 113.526 15.255L113.528 15.2504C113.858 14.6876 114.308 14.2415 114.873 13.916L114.988 13.8525C115.615 13.5138 116.314 13.3482 117.076 13.3481C117.822 13.3481 118.505 13.515 119.115 13.8564C119.723 14.1961 120.199 14.6721 120.54 15.2785L120.604 15.3922C120.914 15.9655 121.066 16.6031 121.066 17.2966C121.066 18.0668 120.806 18.7947 120.31 19.473L120.31 19.4727C119.829 20.1423 119.096 20.811 118.131 21.4823L118.128 21.4851C117.853 21.6714 117.519 21.9237 117.125 22.2443C116.731 22.5647 116.451 22.8197 116.275 23.0122L116.275 23.0129C116.189 23.1073 116.112 23.1977 116.044 23.2839H119.957V23.6703H115.35C115.456 23.4268 115.632 23.1619 115.88 22.8757L115.99 22.7518C116.185 22.5384 116.482 22.2692 116.881 21.9446C117.18 21.701 117.448 21.4942 117.685 21.3237L117.911 21.1654C118.857 20.5067 119.553 19.8665 119.998 19.2449C120.424 18.6621 120.651 18.055 120.677 17.4233L120.68 17.2966C120.68 16.6194 120.523 16.0117 120.207 15.4736C119.92 14.9605 119.527 14.5534 119.028 14.2523L118.927 14.1933C118.379 13.8871 117.762 13.7342 117.076 13.7342C116.371 13.7342 115.735 13.8872 115.169 14.1933C114.613 14.4902 114.176 14.9078 113.861 15.4459L113.806 15.5477C113.537 16.0603 113.402 16.634 113.402 17.2689L113.403 17.3728C113.418 17.8886 113.538 18.3596 113.764 18.7858C114.005 19.2311 114.334 19.6022 114.752 19.8991C115.169 20.1867 115.633 20.3814 116.143 20.4835C115.893 20.669 115.643 20.8685 115.392 21.0819C115.142 21.286 114.956 21.4484 114.835 21.569L114.691 21.7189C114.358 22.0781 114.054 22.5013 113.778 22.9884C113.471 23.545 113.318 24.0507 113.318 24.5053L113.323 24.6039C113.342 24.828 113.429 25.0131 113.583 25.1591C113.759 25.3261 113.986 25.4097 114.265 25.4097H119.971L120.056 25.4059C120.224 25.3902 120.373 25.3277 120.505 25.2181L120.569 25.1591C120.736 24.9829 120.819 24.7741 120.819 24.533C120.819 24.322 120.755 24.1393 120.628 23.9851L120.569 23.9209C120.423 23.7748 120.248 23.6925 120.045 23.6742L119.957 23.6703V23.2839C120.298 23.2839 120.601 23.4064 120.842 23.6475C121.083 23.8886 121.206 24.1918 121.206 24.533C121.206 24.8738 121.084 25.1773 120.849 25.4248L120.842 25.4326C120.604 25.6705 120.307 25.7961 119.971 25.7962H114.265C113.903 25.7961 113.576 25.6845 113.317 25.4396C113.055 25.1914 112.932 24.8676 112.932 24.5053ZM115.141 17.2689C115.141 16.7645 115.296 16.3539 115.606 16.037L115.67 15.9748C116.023 15.6409 116.491 15.4737 117.076 15.4736C117.642 15.4736 118.092 15.6409 118.426 15.9748C118.769 16.3088 118.94 16.7493 118.94 17.2966C118.94 17.5842 118.806 17.923 118.537 18.3127C118.352 18.5724 118.129 18.7624 117.869 18.883C117.618 19.0036 117.354 19.0641 117.076 19.0641V18.6777C117.296 18.6777 117.503 18.6306 117.701 18.5352L117.704 18.5341L117.706 18.5327C117.898 18.4438 118.069 18.301 118.22 18.0909C118.47 17.729 118.554 17.4695 118.554 17.2966C118.554 16.8373 118.414 16.502 118.156 16.2514L118.155 16.2497L118.152 16.2479C117.905 16.0004 117.561 15.8601 117.076 15.8601C116.569 15.8601 116.203 16.0027 115.936 16.2553L115.932 16.2588C115.669 16.501 115.528 16.8241 115.528 17.2689C115.528 17.5033 115.595 17.7263 115.741 17.9452C115.891 18.1702 116.085 18.3501 116.327 18.4875C116.569 18.6158 116.817 18.6777 117.076 18.6777V19.0641L116.955 19.0603C116.674 19.043 116.403 18.9655 116.143 18.8276C115.884 18.6815 115.667 18.4927 115.492 18.2614L115.42 18.1597C115.234 17.8813 115.141 17.5843 115.141 17.2689Z" fill="#333333"/>
<path d="M125.976 12.0479C125.169 12.0479 124.478 11.8113 123.903 11.3382C123.327 10.865 122.891 10.1878 122.594 9.30642C122.298 8.4158 122.149 7.35817 122.149 6.13356C122.149 4.94606 122.298 3.92091 122.594 3.05811C122.891 2.19532 123.327 1.53662 123.903 1.08203C124.478 0.618165 125.169 0.38623 125.976 0.38623C126.783 0.38623 127.474 0.618165 128.05 1.08203C128.625 1.53662 129.061 2.19532 129.358 3.05811C129.655 3.92091 129.803 4.94606 129.803 6.13356C129.803 7.35817 129.655 8.4158 129.358 9.30642C129.061 10.1878 128.625 10.865 128.05 11.3382C127.474 11.8113 126.783 12.0479 125.976 12.0479ZM125.976 10.3084C126.644 10.3084 127.159 9.94192 127.521 9.20901C127.883 8.4761 128.064 7.45095 128.064 6.13356C128.064 4.87184 127.883 3.88844 127.521 3.18336C127.159 2.47828 126.644 2.12574 125.976 2.12574C125.308 2.12574 124.793 2.47828 124.431 3.18336C124.07 3.88844 123.889 4.87184 123.889 6.13356C123.889 7.44167 124.07 8.46682 124.431 9.20901C124.793 9.94192 125.308 10.3084 125.976 10.3084Z" fill="#333333"/>
<path d="M129.802 6.13328C129.802 5.02003 129.672 4.04948 129.411 3.2216L129.357 3.05804C129.06 2.19525 128.624 1.5363 128.049 1.0817C127.509 0.646926 126.868 0.416057 126.125 0.38888L125.975 0.386072C125.168 0.386072 124.477 0.617895 123.902 1.0817C123.327 1.5363 122.891 2.19525 122.594 3.05804L122.54 3.2216C122.279 4.04947 122.148 5.02004 122.148 6.13328C122.148 7.35784 122.297 8.41549 122.594 9.30609C122.891 10.1874 123.327 10.8647 123.902 11.3379C124.441 11.7814 125.082 12.0174 125.825 12.0451L125.975 12.0476C126.782 12.0475 127.473 11.811 128.049 11.3379C128.588 10.8943 129.005 10.2716 129.299 9.4693L129.357 9.30609C129.654 8.41551 129.802 7.3578 129.802 6.13328ZM127.677 6.13328C127.677 4.90045 127.498 3.98701 127.176 3.35953C127.017 3.04913 126.836 2.84031 126.644 2.70882C126.456 2.57972 126.237 2.51195 125.975 2.51193C125.713 2.51193 125.495 2.5797 125.306 2.70882C125.114 2.8403 124.934 3.04908 124.774 3.35953C124.452 3.98702 124.274 4.90042 124.274 6.13328C124.274 7.41339 124.452 8.37219 124.778 9.0397C124.938 9.36418 125.12 9.5822 125.312 9.71884C125.5 9.85277 125.717 9.92205 125.975 9.92205V10.3081L125.852 10.3039C125.244 10.261 124.77 9.89594 124.431 9.20887C124.069 8.46668 123.888 7.44139 123.888 6.13328C123.888 4.95057 124.047 4.0124 124.365 3.31882L124.431 3.18334C124.793 2.47826 125.307 2.1255 125.975 2.1255L126.099 2.12971C126.707 2.17098 127.181 2.52228 127.52 3.18334C127.882 3.88839 128.063 4.8717 128.063 6.13328C128.063 7.45066 127.882 8.47596 127.52 9.20887L127.45 9.34189C127.093 9.98602 126.602 10.3081 125.975 10.3081V9.92205C126.234 9.92203 126.45 9.85271 126.638 9.71884C126.831 9.58195 127.013 9.36341 127.174 9.03795C127.498 8.38107 127.677 7.42361 127.677 6.13328ZM130.189 6.13328C130.189 7.3874 130.037 8.48836 129.723 9.42823L129.723 9.42964C129.409 10.3624 128.938 11.107 128.294 11.6362C127.644 12.1711 126.864 12.434 125.975 12.434C125.087 12.434 124.307 12.1711 123.656 11.6362C123.013 11.107 122.542 10.3625 122.228 9.42964L122.227 9.42823C121.914 8.48834 121.762 7.38743 121.762 6.13328C121.762 4.9153 121.914 3.84568 122.228 2.93239C122.543 2.01818 123.015 1.29165 123.659 0.78127L123.783 0.686156C124.407 0.225774 125.144 0 125.975 0C126.861 2.1715e-05 127.638 0.256078 128.288 0.778813C128.934 1.28932 129.407 2.01675 129.722 2.93239C130.036 3.84568 130.189 4.91528 130.189 6.13328Z" fill="#333333"/>
<path d="M119.955 10.5142C120.197 10.5142 120.401 10.5977 120.568 10.7647C120.735 10.9317 120.818 11.1358 120.818 11.377C120.818 11.6182 120.735 11.8269 120.568 12.0032C120.401 12.1702 120.201 12.2537 119.969 12.2537H114.264C113.985 12.2537 113.758 12.1702 113.582 12.0032C113.406 11.8362 113.317 11.6182 113.317 11.3492C113.317 10.8946 113.47 10.3889 113.777 9.8323C114.092 9.27566 114.445 8.80251 114.834 8.41286C114.955 8.29226 115.14 8.12991 115.391 7.9258C115.641 7.71242 115.892 7.51296 116.142 7.32741C115.632 7.22536 115.168 7.03054 114.751 6.74294C114.333 6.44606 114.004 6.07497 113.763 5.62965C113.521 5.17506 113.401 4.66945 113.401 4.1128C113.401 3.43556 113.554 2.82789 113.86 2.2898C114.176 1.75171 114.612 1.33423 115.168 1.03735C115.734 0.731202 116.37 0.578125 117.075 0.578125C117.761 0.578125 118.378 0.731202 118.926 1.03735C119.473 1.34351 119.9 1.77027 120.206 2.31763C120.521 2.85572 120.679 3.46339 120.679 4.14064C120.679 4.81788 120.452 5.4673 119.997 6.08888C119.552 6.71047 118.856 7.35061 117.91 8.0093C117.622 8.20412 117.279 8.46389 116.88 8.7886C116.481 9.11331 116.184 9.38235 115.989 9.59573C115.683 9.92972 115.47 10.2359 115.349 10.5142H119.955ZM115.14 4.1128C115.14 4.42823 115.233 4.72511 115.419 5.00343C115.604 5.28175 115.845 5.50441 116.142 5.6714C116.439 5.82912 116.75 5.90797 117.075 5.90797C117.353 5.90797 117.618 5.84767 117.868 5.72707C118.128 5.60646 118.35 5.41627 118.536 5.15651C118.805 4.76686 118.94 4.42823 118.94 4.14064C118.94 3.59327 118.768 3.1526 118.425 2.81861C118.091 2.48462 117.641 2.31763 117.075 2.31763C116.49 2.31763 116.022 2.48462 115.669 2.81861C115.317 3.14332 115.14 3.57472 115.14 4.1128Z" fill="#333333"/>
<path d="M112.933 11.349C112.933 10.8086 113.114 10.2383 113.439 9.6461L113.442 9.64154C113.772 9.05943 114.145 8.55751 114.563 8.13971C114.696 8.00616 114.891 7.8356 115.142 7.6315C115.201 7.58108 115.26 7.5313 115.319 7.48234C115.043 7.37109 114.781 7.23128 114.533 7.06082L114.531 7.05906L114.528 7.05766C114.063 6.727 113.694 6.31126 113.424 5.81345L113.423 5.81065C113.15 5.29581 113.016 4.72711 113.016 4.11263C113.016 3.3749 113.183 2.70039 113.526 2.09874L113.528 2.09418C113.858 1.53139 114.308 1.08526 114.873 0.759771L114.988 0.696245C115.615 0.357523 116.314 0.191916 117.076 0.191895C117.822 0.191895 118.505 0.358741 119.115 0.700106C119.723 1.03984 120.2 1.51581 120.54 2.12225L120.605 2.23597C120.915 2.80924 121.067 3.44684 121.067 4.14036C121.067 4.91057 120.806 5.63845 120.31 6.31675L120.31 6.3164C119.829 6.98605 119.096 7.65472 118.132 8.32608L118.128 8.32889C117.853 8.51515 117.519 8.76744 117.125 9.08805C116.731 9.40845 116.451 9.66345 116.276 9.85598L116.275 9.85668C116.189 9.95105 116.112 10.0415 116.044 10.1276H119.957V10.5141H115.351C115.456 10.2705 115.633 10.0056 115.88 9.71945L115.991 9.59556C116.186 9.38219 116.482 9.11299 116.881 8.78832C117.18 8.54479 117.448 8.33791 117.685 8.16744L117.911 8.00915C118.857 7.35046 119.553 6.7102 119.999 6.08862C120.425 5.50589 120.651 4.89871 120.678 4.26706L120.68 4.14036C120.68 3.46316 120.523 2.85545 120.207 2.3174C119.92 1.80422 119.527 1.39716 119.028 1.09601L118.927 1.03704C118.38 0.730898 117.762 0.577967 117.076 0.577967C116.371 0.577989 115.735 0.73091 115.169 1.03704C114.613 1.33392 114.177 1.7516 113.861 2.28967L113.806 2.39145C113.537 2.90404 113.402 3.47774 113.402 4.11263L113.404 4.21652C113.418 4.73235 113.538 5.20339 113.764 5.62954C114.005 6.07483 114.335 6.44598 114.752 6.74284C115.17 7.03042 115.633 7.22516 116.144 7.32721C115.893 7.51274 115.643 7.71226 115.392 7.92562C115.142 8.12972 114.956 8.29217 114.836 8.41277L114.691 8.56264C114.358 8.92184 114.054 9.34506 113.778 9.83211C113.472 10.3887 113.319 10.8944 113.319 11.349L113.323 11.4477C113.342 11.6718 113.429 11.8568 113.583 12.0029C113.759 12.1699 113.987 12.2535 114.265 12.2535H119.971L120.056 12.2496C120.224 12.234 120.374 12.1714 120.505 12.0619L120.569 12.0029C120.736 11.8267 120.819 11.6179 120.819 11.3768C120.819 11.1657 120.756 10.9831 120.628 10.8289L120.569 10.7647C120.423 10.6186 120.248 10.5362 120.046 10.5179L119.957 10.5141V10.1276C120.298 10.1276 120.601 10.2501 120.842 10.4912C121.083 10.7324 121.206 11.0356 121.206 11.3768C121.206 11.7175 121.084 12.0211 120.849 12.2686L120.842 12.2763C120.604 12.5142 120.307 12.6399 119.971 12.6399H114.265C113.903 12.6399 113.576 12.5283 113.317 12.2833C113.055 12.0351 112.933 11.7114 112.933 11.349ZM115.142 4.11263C115.142 3.60825 115.297 3.19761 115.606 2.88071L115.671 2.81859C116.023 2.48463 116.492 2.31743 117.076 2.3174C117.642 2.3174 118.092 2.48461 118.426 2.81859C118.769 3.15255 118.941 3.59305 118.941 4.14036C118.941 4.42796 118.806 4.76678 118.537 5.15643C118.352 5.4162 118.129 5.60616 117.869 5.72676C117.619 5.84735 117.354 5.90787 117.076 5.90787V5.52144C117.296 5.52144 117.504 5.47435 117.702 5.37895L117.704 5.3779L117.707 5.37649C117.898 5.28756 118.07 5.14474 118.22 4.93461C118.47 4.57273 118.555 4.31328 118.555 4.14036C118.555 3.68107 118.414 3.3458 118.157 3.09516L118.155 3.0934L118.153 3.09165C117.905 2.84415 117.561 2.70382 117.076 2.70382C116.569 2.70385 116.203 2.8464 115.936 3.09902L115.932 3.10253C115.669 3.34472 115.528 3.66787 115.528 4.11263C115.528 4.3471 115.596 4.57005 115.742 4.78896C115.891 5.0139 116.085 5.1939 116.327 5.33122C116.57 5.45952 116.818 5.52142 117.076 5.52144V5.90787L116.955 5.90401C116.674 5.88674 116.403 5.80927 116.144 5.67131C115.884 5.52522 115.667 5.33648 115.492 5.10519L115.42 5.00341C115.234 4.72508 115.142 4.42806 115.142 4.11263Z" fill="#333333"/>
<path d="M91.4582 25.8366C91.4396 25.7253 91.4211 25.614 91.4025 25.5027C91.4025 25.4099 91.384 25.2707 91.3469 25.0852C91.3098 24.8996 91.2634 24.6863 91.2077 24.445C91.152 24.2224 91.0964 23.9812 91.0407 23.7214L90.8737 23.1369C90.7438 22.7658 90.8737 22.5803 91.2634 22.5803H92.5993C92.9333 22.5803 93.1653 22.5339 93.2951 22.4411C93.4436 22.3298 93.5178 22.0979 93.5178 21.7453V19.2683C93.5178 18.9899 93.4343 18.7673 93.2673 18.6003C93.1003 18.4333 92.8777 18.3498 92.5993 18.3498H85.2794C85.0011 18.3498 84.7784 18.2663 84.6114 18.0993C84.4444 17.9323 84.3609 17.7097 84.3609 17.4313V16.0676C84.3609 15.9562 84.3145 15.9284 84.2217 15.9841C84.129 16.0397 84.0362 16.0212 83.9434 15.9284C83.7208 15.613 83.3682 15.1955 82.8858 14.676C82.7559 14.5646 82.6353 14.4533 82.524 14.342C82.4126 14.2307 82.292 14.1286 82.1621 14.0358C81.7354 13.6276 81.7632 13.2751 82.2456 12.9782C83.3033 12.3845 84.3331 11.6701 85.3351 10.8351C85.5577 10.631 85.567 10.4269 85.3629 10.2228L84.6114 9.44353C84.5001 9.35076 84.3887 9.35076 84.2774 9.44353L83.9713 9.72185C83.8414 9.81463 83.7486 9.80535 83.6929 9.69402C83.192 9.02605 82.6353 8.41374 82.023 7.8571C81.5962 7.52312 81.5869 7.1613 81.9952 6.77165C83.7022 5.41715 85.2701 3.40396 86.6988 0.732079C86.9586 0.249656 87.3297 0.0826632 87.8121 0.2311L90.3449 0.982568C90.4562 1.01968 90.4748 1.14028 90.4006 1.34439L90.3727 1.37222V1.40005L90.3449 1.42788L90.2892 1.56704C90.2521 1.60415 90.2428 1.64126 90.2614 1.67837C90.28 1.71548 90.3171 1.73404 90.3727 1.73404H94.1023C94.2878 1.73404 94.5012 1.80825 94.7424 1.95669C94.9094 2.08658 94.9558 2.04947 94.8816 1.84536L94.7146 1.31655C94.6404 1.14956 94.7053 1.04751 94.9094 1.0104L97.5813 0.453758C98.1009 0.34243 98.4627 0.555809 98.6668 1.0939C98.7225 1.35366 98.7874 1.56704 98.8616 1.73404C98.9359 1.88247 98.973 1.97525 98.973 2.01236C98.9915 2.03091 99.0101 2.05874 99.0286 2.09585L99.1678 2.51333C99.2049 2.58755 99.2327 2.6525 99.2513 2.70816C99.4925 3.19058 99.6131 3.16275 99.6131 2.62466V2.54117C99.6131 2.2814 99.6966 2.06802 99.8636 1.90103C100.031 1.73403 100.253 1.65054 100.532 1.65054H106.766C107.007 1.65054 107.202 1.72476 107.351 1.8732L107.824 2.29068C108.195 2.60611 108.26 2.9772 108.019 3.40396C106.812 5.40788 105.699 7.12419 104.679 8.5529C104.53 8.75701 104.465 8.97039 104.484 9.19304C104.521 9.4157 104.642 9.60125 104.846 9.74969C106.015 10.696 107.248 11.4846 108.547 12.1154C108.918 12.301 108.946 12.5329 108.631 12.8112C108.019 13.3308 107.295 14.2214 106.46 15.4831C106.423 15.5573 106.367 15.5759 106.293 15.5388C106.219 15.5017 106.182 15.5202 106.182 15.5944V17.4313C106.182 17.7097 106.098 17.9323 105.931 18.0993C105.764 18.2663 105.541 18.3498 105.263 18.3498H98.5555C98.2772 18.3498 98.0545 18.4333 97.8875 18.6003C97.7205 18.7673 97.637 18.9899 97.637 19.2683V23.2483C97.637 24.4358 97.2566 25.2986 96.4959 25.8366C95.865 26.2634 94.9094 26.4768 93.6291 26.4768H92.154C91.7458 26.4768 91.5139 26.2634 91.4582 25.8366ZM93.657 9.38787H97.1917C97.7483 9.38787 98.0916 9.25799 98.2215 8.99822C98.3514 8.73845 98.24 8.36736 97.8875 7.88493C97.1824 6.88298 96.5701 5.82536 96.0506 4.71207C95.8279 4.22965 95.596 3.98844 95.3547 3.98844C95.1135 3.98844 94.8723 4.2482 94.6311 4.76774C94.0188 6.08512 93.4343 7.12419 92.8777 7.88493C92.5808 8.3488 92.4973 8.7199 92.6272 8.99822C92.757 9.25799 93.1003 9.38787 93.657 9.38787ZM90.1501 5.57487L90.3727 5.24088L90.5397 4.9069C90.6696 4.68424 90.5954 4.57291 90.3171 4.57291H88.675C88.5636 4.57291 88.4801 4.6193 88.4245 4.71207C88.3688 4.80485 88.3873 4.87906 88.4801 4.93473L89.1759 5.38004L89.6213 5.71403C89.8439 5.88102 90.0202 5.83463 90.1501 5.57487ZM101.979 6.04801L102.536 5.15739C102.684 4.91617 102.61 4.79557 102.313 4.79557H101.478C101.144 4.79557 100.931 4.87906 100.838 5.04606C100.745 5.21305 100.764 5.38932 100.893 5.57487C101.023 5.74186 101.144 5.89958 101.255 6.04801C101.367 6.19645 101.487 6.27067 101.617 6.27067C101.765 6.27067 101.886 6.19645 101.979 6.04801ZM87.8121 8.58074L88.1461 8.21892C88.2575 8.10759 88.2575 8.00554 88.1461 7.91276C88.0348 7.81999 87.9328 7.74577 87.84 7.69011C87.7658 7.61589 87.6823 7.53239 87.5895 7.43962L86.9493 6.99431C86.8194 6.93864 86.7174 6.94792 86.6432 7.02214L86.5318 7.18913C86.2906 7.39323 86.2442 7.54167 86.3927 7.63444L87.4782 8.58074C87.5895 8.69207 87.7008 8.69207 87.8121 8.58074ZM88.5915 14.7038H103.565C104.382 14.7038 104.465 14.4533 103.816 13.9523C103.63 13.8039 103.445 13.6647 103.259 13.5349C103.092 13.405 102.907 13.2565 102.703 13.0895C102.313 12.7741 101.877 12.3937 101.394 11.9484C101.209 11.8 101.079 11.7258 101.005 11.7258C100.838 11.7258 100.754 11.8742 100.754 12.1711C100.754 12.4494 100.671 12.6721 100.504 12.8391C100.355 13.006 100.151 13.0895 99.8914 13.0895H90.4841C90.0202 13.0895 89.7882 12.8576 89.7882 12.3937C89.7882 11.9299 89.6213 11.8649 89.2873 12.1989C89.0832 12.3845 88.8791 12.57 88.675 12.7556C88.4894 12.9225 88.2946 13.0988 88.0905 13.2844C87.5524 13.7297 87.3204 14.0822 87.3947 14.342C87.4874 14.5832 87.8864 14.7038 88.5915 14.7038ZM87.5338 24.7512C87.2369 24.8996 86.9493 25.0481 86.671 25.1965C86.4112 25.3449 86.1793 25.4563 85.9752 25.5305C85.7896 25.6233 85.5855 25.6697 85.3629 25.6697C85.1402 25.6697 84.9268 25.5119 84.7227 25.1965C84.5372 24.8811 84.3516 24.6028 84.1661 24.3615C83.9991 24.1203 83.8506 23.9348 83.7208 23.8049C83.6094 23.6565 83.4981 23.508 83.3868 23.3596C83.0157 22.9143 83.0992 22.571 83.6373 22.3298C84.9547 21.7732 86.5782 20.7712 88.5079 19.3239C88.6193 19.2312 88.7399 19.1198 88.8698 18.9899C89.0182 18.8415 89.2038 18.7673 89.4264 18.7673C89.6676 18.7673 89.8717 18.8601 90.0387 19.0456L91.5139 20.4929C91.718 20.6784 91.82 20.8825 91.82 21.1052C91.82 21.3278 91.718 21.5412 91.5139 21.7453C90.5119 22.7473 89.1852 23.7492 87.5338 24.7512ZM104.873 25.6418C102.925 24.7326 101.042 23.4338 99.2235 21.7453C99.0194 21.5412 98.9173 21.3278 98.9173 21.1052C98.9173 20.8825 99.0194 20.6692 99.2235 20.4651L100.559 19.1569C100.745 18.9714 100.958 18.8786 101.2 18.8786C101.441 18.8786 101.654 18.9714 101.84 19.1569C103.584 20.4743 105.337 21.5319 107.1 22.3298C107.62 22.571 107.694 22.905 107.323 23.3318C107.119 23.5544 106.896 23.8513 106.655 24.2224C106.414 24.5935 106.209 24.9089 106.042 25.1687C105.69 25.6882 105.3 25.8459 104.873 25.6418Z" fill="#333333"/>
<path d="M72.142 24.3614C70.1566 24.3614 68.3846 24.148 66.826 23.7213C65.0447 23.2203 63.7644 22.3111 62.9851 20.9937C62.5769 20.2886 62.3728 19.4815 62.3728 18.5723C62.3728 17.6446 62.5027 16.856 62.7625 16.2066C63.0408 15.5572 63.4119 14.9634 63.8758 14.4253C64.6736 13.5161 65.8333 12.6997 67.3548 11.9761C67.596 11.8648 67.7166 11.7071 67.7166 11.503C67.7166 11.4287 67.7074 11.3452 67.6888 11.2525C67.1322 9.11867 66.826 6.82716 66.7703 4.37794C66.7703 3.91407 66.7796 3.51514 66.7982 3.18116C66.8167 2.84717 66.8909 2.5874 67.0208 2.40186C67.2064 2.14209 67.4847 2.01221 67.8558 2.01221H70.1381C70.5092 2.01221 70.7875 2.11426 70.973 2.31836C71.1586 2.50391 71.2514 2.74512 71.2514 3.04199C71.2514 3.09766 71.2421 3.21827 71.2235 3.40381C71.205 3.57081 71.1957 3.80274 71.1957 4.09962C71.1957 5.88087 71.3441 7.74562 71.641 9.69387C71.6967 9.99075 71.8544 10.1392 72.1142 10.1392C72.2069 10.1392 72.2904 10.1299 72.3647 10.1114C73.2368 9.83303 74.517 9.49905 76.2055 9.1094C76.521 8.99807 76.7993 9.0259 77.0405 9.19289C77.2817 9.35988 77.4395 9.61037 77.5137 9.94436L77.8477 12.0596C77.8662 12.1338 77.8755 12.2173 77.8755 12.3101C77.8755 12.5327 77.8106 12.7368 77.6807 12.9224C77.5137 13.1451 77.2446 13.2842 76.8735 13.3399C76.521 13.377 76.0107 13.4512 75.3427 13.5625C73.747 13.8409 72.2533 14.2305 70.8617 14.7315C70.0824 15.0098 69.3866 15.3252 68.7743 15.6778C67.4012 16.4571 66.7147 17.292 66.7147 18.1827C66.7147 18.9805 67.3641 19.565 68.6629 19.9361C69.5721 20.1959 70.6205 20.3257 71.808 20.3257C73.8676 20.3257 76.0386 20.0289 78.3208 19.4351C78.4136 19.4166 78.5064 19.4073 78.5991 19.4073C78.7105 19.4073 78.8218 19.4537 78.9331 19.5464C79.0445 19.6207 79.1001 19.7505 79.1001 19.9361C79.1001 20.0289 79.0816 20.1216 79.0445 20.2144C79.0259 20.2886 79.0074 20.3814 78.9888 20.4927C78.9888 20.5855 78.9702 20.7247 78.9331 20.9102C78.8032 21.5967 78.7383 22.0699 78.7383 22.3296V22.8585C78.7383 23.0997 78.6641 23.3223 78.5156 23.5264C78.3858 23.712 78.1724 23.8233 77.8755 23.8604C75.7973 24.1944 73.8862 24.3614 72.142 24.3614Z" fill="#333333"/>
<path d="M62.1788 5.93702C61.9747 6.10402 61.715 6.18751 61.3995 6.18751C61.1026 6.18751 60.8614 6.04835 60.6759 5.77003C60.4347 5.47315 60.1842 5.17628 59.9244 4.8794C59.7203 4.61964 59.5069 4.37842 59.2842 4.15577V4.12794C59.0616 3.86817 58.9503 3.59913 58.9503 3.3208C58.9503 3.04248 59.0894 2.78272 59.3677 2.5415L59.8409 2.17969C60.0636 2.03125 60.2769 1.95703 60.481 1.95703C60.7037 1.95703 60.88 2.03125 61.0099 2.17969C61.1212 2.32813 61.2696 2.49512 61.4552 2.68067L62.4293 3.82178C62.5778 3.97022 62.7076 4.14649 62.819 4.35059C62.9489 4.51758 63.0231 4.69385 63.0416 4.8794C63.0416 5.13917 62.9117 5.36183 62.652 5.54737L62.1788 5.93702ZM59.7852 7.85744C59.5811 8.02443 59.3214 8.10793 59.0059 8.10793C58.709 8.10793 58.4585 7.97804 58.2544 7.71828C57.772 7.05031 57.4195 6.60499 57.1968 6.38234C56.77 5.95558 56.5567 5.59376 56.5567 5.29688C56.5567 4.98145 56.6958 4.70313 56.9741 4.46192L57.4195 4.1001C57.6421 3.95167 57.8555 3.87745 58.0596 3.87745C58.2823 3.87745 58.4678 3.97022 58.6163 4.15577C58.8018 4.34131 58.9503 4.49903 59.0616 4.62891L60.0357 5.7422C60.1656 5.90919 60.2955 6.08546 60.4254 6.27101C60.5553 6.438 60.6202 6.62355 60.6202 6.82765C60.6202 7.06886 60.4903 7.29152 60.2305 7.49562L59.7852 7.85744ZM44.3104 7.35646V5.18556C44.3104 4.81446 44.4217 4.53614 44.6444 4.35059C44.8299 4.22071 45.0247 4.15577 45.2288 4.15577C45.3031 4.15577 45.4051 4.17432 45.535 4.21143C45.6834 4.22999 45.8319 4.24854 45.9803 4.2671C46.1288 4.28565 46.4442 4.32276 46.9266 4.37842C47.6503 4.45264 48.6151 4.48975 49.8212 4.48975C51.6581 4.48975 53.3838 4.35059 54.998 4.07227C55.0908 4.07227 55.1836 4.07227 55.2764 4.07227C55.6104 4.07227 55.8608 4.1836 56.0278 4.40626C56.1392 4.57325 56.1948 4.78663 56.1948 5.0464V7.27296C56.1948 7.51418 56.1206 7.72755 55.9722 7.9131C55.8423 8.09865 55.5547 8.23781 55.1094 8.33058C54.3486 8.49758 53.2446 8.59963 51.7973 8.63674C50.9438 8.63674 50.2851 8.63674 49.8212 8.63674C48.077 8.63674 46.5091 8.54396 45.1175 8.35842C44.8763 8.32131 44.6815 8.20998 44.533 8.02443C44.3846 7.82033 44.3104 7.59767 44.3104 7.35646ZM44.5052 16.3462C44.932 16.3462 45.2752 16.5874 45.535 17.0699C45.9061 17.6636 46.3792 18.0533 46.9545 18.2388C47.5297 18.4244 48.3275 18.5171 49.348 18.5171C50.3686 18.5171 51.6118 18.4336 53.0776 18.2666C54.4878 18.1182 55.8887 17.8584 57.2803 17.4873C57.3731 17.4688 57.4659 17.4595 57.5586 17.4595C57.7813 17.4595 57.9483 17.543 58.0596 17.71C58.1524 17.8213 58.1988 17.9791 58.1988 18.1832C58.1988 18.8697 58.2452 19.4356 58.3379 19.8809C58.4493 20.3077 58.5142 20.5767 58.5328 20.688C58.5513 20.7808 58.5699 20.8736 58.5884 20.9664C58.607 21.0406 58.6163 21.1055 58.6163 21.1612C58.6163 21.2169 58.6163 21.254 58.6163 21.2725C58.6163 21.6622 58.4029 21.9127 57.9761 22.024C56.603 22.3765 55.3042 22.5992 54.0796 22.692C52.8735 22.7662 51.8715 22.8218 51.0737 22.8589C50.2944 22.8775 49.515 22.8868 48.7357 22.8868C47.975 22.8868 47.2328 22.8311 46.5091 22.7198C45.7855 22.5899 45.1268 22.3672 44.533 22.0518C43.2713 21.421 42.325 20.3355 41.6941 18.7955C41.5828 18.5542 41.5735 18.3223 41.6663 18.0997C41.7591 17.8584 41.9261 17.6729 42.1673 17.543L43.8929 16.5411C44.1155 16.4112 44.3196 16.3462 44.5052 16.3462Z" fill="#333333"/>
<path d="M33.0366 23.9161C32.0532 24.2315 31.1069 24.3892 30.1977 24.3892C29.307 24.3892 28.4813 24.315 27.7206 24.1666C26.9598 24.0367 26.2547 23.8047 25.6053 23.4708C24.1209 22.6729 23.3787 21.4576 23.3787 19.8248C23.3787 18.6187 23.8148 17.6353 24.6868 16.8746C25.5033 16.1695 26.496 15.8169 27.6649 15.8169C29.9657 15.8169 31.58 16.8467 32.5078 18.9063C32.6191 19.1846 32.7583 19.3238 32.9253 19.3238C33.1479 19.3238 33.352 19.0362 33.5376 18.461C33.7046 17.96 33.7881 17.4776 33.7881 17.0137C33.7881 16.5498 33.686 16.1231 33.4819 15.7334C33.2778 15.3252 33.018 14.982 32.7026 14.7036C31.9975 14.1285 31.1718 13.8409 30.2255 13.8409C29.2978 13.8409 28.4442 13.9336 27.6649 14.1192C26.8856 14.3047 26.1712 14.6944 25.5218 15.2881L23.49 16.958C23.2859 17.1436 23.054 17.2364 22.7942 17.2364C22.5345 17.2364 22.2932 17.1158 22.0706 16.8746L20.7346 15.4551C20.4934 15.1953 20.3728 14.9356 20.3728 14.6758C20.3728 14.3418 20.5676 14.045 20.9573 13.7852C23.388 12.3008 25.9115 10.0279 28.5277 6.96632C28.6205 6.85499 28.6854 6.75294 28.7225 6.66017C28.704 6.66017 28.6669 6.66017 28.6112 6.66017C28.5927 6.66017 28.1288 6.74367 27.2196 6.91066C26.162 7.11476 25.0858 7.2632 23.991 7.35597C23.9168 7.35597 23.8611 7.35597 23.824 7.35597C23.6199 7.35597 23.4344 7.30031 23.2674 7.18898C23.0447 7.02199 22.9148 6.79933 22.8777 6.52101L22.4602 4.54493C22.4602 4.45215 22.4602 4.36866 22.4602 4.29444C22.4602 3.99756 22.5623 3.76563 22.7664 3.59864C22.9334 3.50586 23.1468 3.45948 23.4065 3.45948H23.7962C25.7074 3.45948 27.767 3.23682 29.975 2.7915C30.6801 2.66162 31.1718 2.55957 31.4501 2.48535C31.7285 2.41113 31.9604 2.37402 32.1459 2.37402C32.3501 2.37402 32.5449 2.42969 32.7304 2.54102L34.5395 3.7378C34.7808 3.88623 34.9385 4.09034 35.0127 4.3501C35.0498 4.44288 35.0684 4.52637 35.0684 4.60059C35.0684 4.78614 35.0034 4.96241 34.8735 5.1294C33.9272 6.79933 32.4707 8.63625 30.5038 10.6402L31.0605 10.6123C33.1757 10.6123 34.8643 11.169 36.126 12.2823C37.4991 13.4512 38.1856 15.0469 38.1856 17.0694C38.1856 19.3516 37.3506 21.17 35.6807 22.5245C34.9199 23.1182 34.0386 23.5821 33.0366 23.9161ZM27.7484 19.2959C27.5814 19.2959 27.4608 19.3238 27.3866 19.3794C27.3124 19.4351 27.2753 19.5279 27.2753 19.6578C27.2753 19.7876 27.3216 19.899 27.4144 19.9917C27.6742 20.233 28.2308 20.4 29.0844 20.4927C28.9545 20.1773 28.7968 19.899 28.6112 19.6578C28.4257 19.4166 28.1381 19.2959 27.7484 19.2959Z" fill="#333333"/>
<path d="M1.92044 5.15724L2.75542 5.18507H3.64606C4.48103 5.18507 5.37167 5.16651 6.31797 5.1294C6.48497 5.1294 6.61485 5.07374 6.70763 4.96241C6.81896 4.85108 6.87462 4.73048 6.87462 4.60059C6.87462 4.58204 6.87462 4.56348 6.87462 4.54493V3.59864L6.84679 2.93067C6.84679 2.59668 6.94884 2.34619 7.15295 2.1792C7.31994 2.04932 7.53332 1.98438 7.79309 1.98438H9.8527C10.1681 1.98438 10.4279 2.08643 10.632 2.29053C10.8361 2.49463 10.9382 2.7544 10.9382 3.06983V4.29444C10.9382 4.47999 10.9846 4.61915 11.0773 4.71192C11.1887 4.8047 11.3 4.85108 11.4113 4.85108C11.4299 4.85108 11.6618 4.8418 12.1071 4.82325C12.5524 4.78614 13.007 4.73975 13.4709 4.68409C13.9348 4.60987 14.2502 4.57276 14.4172 4.57276C14.5842 4.55421 14.7419 4.53565 14.8904 4.5171C15.0388 4.47999 15.1501 4.46143 15.2244 4.46143C15.447 4.46143 15.6511 4.53565 15.8367 4.68409C16.0965 4.88819 16.2263 5.18507 16.2263 5.57472V7.21681C16.2263 7.47658 16.1428 7.69924 15.9758 7.88478C15.8088 8.07033 15.5955 8.19094 15.3357 8.2466C13.9997 8.41359 12.6638 8.5342 11.3278 8.60842C11.1979 8.62697 11.1052 8.66408 11.0495 8.71975C11.0124 8.77541 10.9938 8.85891 10.9938 8.97023L11.0217 9.49905V10.0279C11.0402 10.1206 11.0588 10.1856 11.0773 10.2227C11.1144 10.2598 11.1608 10.2783 11.2165 10.2783C11.2722 10.2783 11.3185 10.2783 11.3557 10.2783C12.6916 10.1485 13.6565 10.0093 14.2502 9.86086C14.5657 9.78664 14.844 9.74953 15.0852 9.74953C15.3264 9.74953 15.512 9.8052 15.6419 9.91653C15.8831 10.1021 16.0037 10.3989 16.0037 10.8072V12.6719C16.0037 12.9131 15.948 13.1172 15.8367 13.2842C15.7068 13.5069 15.4934 13.646 15.1965 13.7017C14.176 13.9244 12.9978 14.0821 11.6618 14.1748C11.4948 14.1934 11.3649 14.2583 11.2722 14.3697C11.1979 14.4624 11.1608 14.5738 11.1608 14.7036L11.1887 16.4571C11.2072 16.7539 11.3464 16.9395 11.6061 17.0137C13.406 17.5889 15.2986 18.4703 17.284 19.6578C17.5437 19.8062 17.6736 20.001 17.6736 20.2422C17.6736 20.4649 17.5809 20.6597 17.3953 20.8267C17.0799 21.0865 16.6624 21.6246 16.1428 22.441C16.0872 22.5152 16.0315 22.5987 15.9758 22.6915C15.9387 22.7657 15.8738 22.877 15.781 23.0255C15.6697 23.2296 15.4934 23.3316 15.2522 23.3316C15.0295 23.3316 14.8533 23.2852 14.7234 23.1924C14.0554 22.6729 13.5266 22.2833 13.1369 22.0235C12.6545 21.7266 12.2927 21.5225 12.0515 21.4112C11.8103 21.2999 11.6525 21.2442 11.5783 21.2442C11.3371 21.2442 11.1608 21.439 11.0495 21.8287C10.4186 23.8697 8.7394 24.8995 6.01182 24.918C3.93366 24.918 2.39359 24.4634 1.39162 23.5543C0.463874 22.7007 0 21.6338 0 20.3536C0 20.335 0 20.3165 0 20.2979V20.2701C0.0371101 19.3052 0.352545 18.5074 0.946304 17.8765C1.54006 17.2456 2.16166 16.8003 2.81108 16.5406C3.72028 16.188 4.66658 16.0118 5.64999 16.0118C5.74277 16.0118 6.12315 16.0303 6.79113 16.0674L7.09728 16.0953C7.09728 16.0953 7.10656 16.0953 7.12512 16.0953L7.06945 14.5645C7.06945 14.5088 7.06017 14.481 7.04162 14.481C7.04162 14.4624 7.02306 14.4532 6.98595 14.4532L6.65196 14.481H5.95615C4.95418 14.481 4.22126 14.4253 3.75738 14.314C2.79253 14.1099 2.06888 13.7481 1.58645 13.2285C0.955582 12.5606 0.640147 12.0039 0.640147 11.5586C0.640147 11.1875 0.844252 10.9092 1.25246 10.7237L3.03374 9.8052C3.14507 9.76809 3.24712 9.74953 3.3399 9.74953C3.58111 9.74953 3.77594 9.85159 3.92438 10.0557C4.03571 10.2041 4.15632 10.3247 4.2862 10.4175C4.34187 10.4732 4.49958 10.5196 4.75935 10.5567C5.01912 10.5938 5.43661 10.6123 6.01182 10.6123H6.62413L6.93029 10.5845C6.9674 10.5845 6.98595 10.5845 6.98595 10.5845C6.98595 10.5659 6.98595 10.5474 6.98595 10.5288L6.95812 9.49905C6.95812 9.3135 6.92101 9.17434 6.84679 9.08156C6.77257 8.98879 6.63341 8.9424 6.4293 8.9424C6.4293 8.9424 6.08604 8.95168 5.3995 8.97023C4.26765 9.0259 3.40484 9.05373 2.81108 9.05373H2.00394C1.70706 9.05373 1.45657 8.96096 1.25246 8.77541C1.06691 8.58986 0.974136 8.34865 0.974136 8.05177C0.937027 6.84572 0.918472 6.23341 0.918472 6.21486C0.918472 5.89943 1.01125 5.64894 1.1968 5.46339C1.38235 5.25929 1.62356 5.15724 1.92044 5.15724ZM3.95221 20.3257C3.95221 20.8638 4.49031 21.1329 5.5665 21.1329C6.06748 21.1329 6.45714 21.0494 6.73546 20.8824C7.03234 20.7154 7.18078 20.4278 7.18078 20.0196V19.7413C7.18078 19.7227 7.18078 19.7134 7.18078 19.7134H7.15295L6.45714 19.6021C6.17881 19.5835 5.82627 19.5743 5.3995 19.5743C4.99129 19.5743 4.64802 19.6485 4.3697 19.7969C4.09137 19.9454 3.95221 20.1216 3.95221 20.3257Z" fill="#333333"/>
</svg>
